<?xml version="1.0" encoding="UTF-8"?>
<svg width="52px" height="53px" viewBox="0 0 52 53" version="1.1" xmlns="http://www.w3.org/2000/svg" xmlns:xlink="http://www.w3.org/1999/xlink">
    <!-- Generator: Sketch 50 (54983) - http://www.bohemiancoding.com/sketch -->
    <title>features</title>
    <desc>Created with Sketch.</desc>
    <defs></defs>
    <g id="Symbols" stroke="none" stroke-width="1" fill="none" fill-rule="evenodd">
        <g id="Icons-/-Features" fill-rule="nonzero">
            <g id="features">
                <path d="M14.1742425,20 L8.99102651,14.5707965 L8.57814778,15.3340708 C8.51829794,15.4399482 8.41499365,15.510997 8.29825762,15.5265685 C8.1815216,15.5421401 8.06444815,15.5004878 7.98106162,15.4137168 L7.1108403,14.5110619 C6.98817265,14.3821272 6.96464857,14.1827541 7.05367248,14.0265487 L8.77505918,11 L15,17.4314159 L14.1742425,20 Z" id="Shape" fill="#06B0E5"></path>
                <path d="M44.7271955,43.2872847 C45.09605,42.6903888 45.0069979,41.9168234 44.5122699,41.420299 L3.60707764,0.318748643 C3.39386752,0.0891767944 3.0859756,-0.0268369177 2.77510763,0.00526224132 C2.45963452,0.0460398103 2.17936813,0.227807397 2.01246846,0.499874119 L0.147469012,3.55810812 C-0.0978910108,3.96686686 -0.0319191844,4.49141075 0.306929931,4.82598646 L1.63114887,6.16352844 C1.85800112,6.38820005 2.17481198,6.49602206 2.49085121,6.45611574 C2.80712443,6.42257688 3.08818694,6.23862064 3.24655731,5.96150387 L3.65560923,5.26486742 L9.20207597,10.837959 L7.5173367,13.6872021 C7.25878635,14.1264879 7.3301888,14.6861005 7.69066379,15.0456431 L8.6474293,16.0279005 C8.89072597,16.2735216 9.23493813,16.3896701 9.57646248,16.3413869 C9.92422134,16.3037807 10.2320089,16.0984703 10.4014994,15.7910441 L15.10213,20.5142393 C14.8245079,21.6903038 15.1735126,22.9269125 16.0242301,23.7814642 L33.1558792,41.0092835 C34.3173452,42.1733455 35.5692606,43.2425817 36.8997443,44.2068448 L39.2084611,45.8718059 C39.6365005,46.1881589 40.1538485,46.3589954 40.6852078,46.3594515 C40.9987486,46.3560952 41.3089877,46.2946942 41.6003749,46.178326 C43.9437571,48.4632935 46.1415445,49.9610619 48.1382725,50.6298329 C48.7822547,50.8596159 49.4587107,50.9842674 50.1419336,50.9990502 C50.3754343,51.0054299 50.6087046,50.979647 50.835242,50.9224202 L52,50.6019674 L44.7271955,43.2872847 Z M15.6082451,17.5117362 L15.6082451,18.96074 L15.6082451,19.0304036 L10.1103099,13.4991102 L9.38233614,14.7669886 L8.8554218,14.2305785 L10.1657746,12.0083082 L16.0311632,17.8461217 L15.6082451,17.5117362 Z M17.0849918,18.9537736 L17.3623152,18.1805072 C17.5193219,17.6925009 17.3968091,17.1572797 17.0433933,16.7872343 L3.37828589,3.04259715 L2.29672488,4.88171737 L1.48555411,4.03878727 L2.93456855,1.6214588 L43.527772,42.4095228 C43.5516496,42.4306819 43.5653285,42.4611296 43.5653285,42.4931192 C43.5653285,42.5251088 43.5516496,42.5555564 43.527772,42.5767155 L42.4670103,43.6495357 L17.0849918,18.9537736 Z M42.7374005,45.3214631 L43.7565638,44.2904412 L48.7899824,49.3480218 C47.5004289,48.9718381 45.4621023,47.9408162 42.7512667,45.3353959 L42.7374005,45.3214631 Z" id="Shape" fill="#005BC7"></path>
                <path d="M48.3890577,41.2409003 L48.3890577,25.0036338 L36.298558,25.0036338 C36.1982443,24.9864135 36.0974437,25.0313552 36.0417616,25.1181258 C35.9860795,25.2048965 35.9860795,25.3170344 36.0417616,25.4038051 C36.0974437,25.4905757 36.1982443,25.5355174 36.298558,25.5182971 L47.8841015,25.5182971 L47.8841015,41.2191539 C46.9131449,41.3544921 46.2109749,42.2332552 46.2775213,43.2297832 C46.3440676,44.2263113 47.1565853,45 48.1365796,45 C49.1165739,45 49.9290916,44.2263113 49.995638,43.2297832 C50.0621843,42.2332552 49.3600144,41.3544921 48.3890577,41.2191539 L48.3890577,41.2409003 Z" id="Shape" fill="#06B0E5"></path>
                <rect id="Rectangle-path" fill="#005BC7" x="36" y="22" width="12" height="2" rx="1"></rect>
                <path d="M19.7852946,36.4863654 L8.14919856,36.4863654 L8.14919856,20.8168938 C9.13753865,20.6817496 9.85323098,19.7949347 9.78627767,18.7883878 C9.71932436,17.7818409 8.89263669,17 7.8953071,17 C6.89797751,17 6.07128984,17.7818409 6.00433653,18.7883878 C5.93738322,19.7949347 6.65307555,20.6817496 7.64141564,20.8168938 L7.64141564,37 L19.7852946,37 C19.9092424,36.9788834 20,36.8703247 20,36.7431827 C20,36.6160407 19.9092424,36.5074821 19.7852946,36.4863654 Z" id="Shape" fill="#06B0E5"></path>
                <rect id="Rectangle-path" fill="#005BC7" transform="translate(13.000000, 38.000000) rotate(180.000000) translate(-13.000000, -38.000000) " x="7" y="37" width="12" height="2" rx="1"></rect>
                <path d="M41.7856231,14 L29.6460448,14 L29.6460448,30.1755015 C28.6552409,30.3104264 27.9374514,31.1989005 28.0043135,32.2076232 C28.0711757,33.2163459 28.8998005,34 29.8995477,34 C30.8992949,34 31.7279198,33.2163459 31.7947819,32.2076232 C31.8616441,31.1989005 31.1438545,30.3104264 30.1530507,30.1755015 L30.1530507,14.5127056 L41.7856231,14.5127056 C41.9093813,14.4916272 42,14.3832649 42,14.2563528 C42,14.1294407 41.9093813,14.0210784 41.7856231,14 Z" id="Shape" fill="#06B0E5"></path>
                <rect id="Rectangle-path" fill="#005BC7" transform="translate(35.000000, 13.000000) rotate(-180.000000) translate(-35.000000, -13.000000) " x="29" y="12" width="12" height="2" rx="1"></rect>
                <path d="M32.3592275,46.2866123 L32.3592275,50 L20.21509,50 C20.0909202,49.981503 20,49.8864116 20,49.7750422 C20,49.6636728 20.0909202,49.5685814 20.21509,49.5500844 L31.8720291,49.5500844 L31.8720291,46.3056228 C30.8929421,46.1888951 30.1837201,45.4209378 30.249857,44.5491078 C30.3159938,43.6772779 31.134851,43 32.122793,43 C33.1107349,43 33.9295921,43.6772779 33.9957289,44.5491078 C34.0618658,45.4209378 33.3526438,46.1888951 32.3735569,46.3056228 L32.3592275,46.2866123 Z" id="Shape" fill="#06B0E5"></path>
                <rect id="Rectangle-path" fill="#005BC7" x="20" y="51" width="12" height="2" rx="1"></rect>
            </g>
        </g>
    </g>
</svg>