<?xml version="1.0" encoding="UTF-8"?>
<svg width="36px" height="23px" viewBox="0 0 36 23" version="1.1" xmlns="http://www.w3.org/2000/svg" xmlns:xlink="http://www.w3.org/1999/xlink">
    <!-- Generator: Sketch 50 (54983) - http://www.bohemiancoding.com/sketch -->
    <title>mail</title>
    <desc>Created with Sketch.</desc>
    <defs></defs>
    <g id="Symbols" stroke="none" stroke-width="1" fill="none" fill-rule="evenodd">
        <g id="Icons-/-Features-Copy" transform="translate(-8.000000, -10.000000)" fill-rule="nonzero">
            <g id="mail" transform="translate(8.000000, 10.000000)">
                <path d="M35,1.11944157 L35,22 L32.615626,20.5341262 L32.615626,5.80480869 C32.6147932,5.19626335 32.2729257,4.64152804 31.7350094,4.37586555 C31.197093,4.11020306 30.5574022,4.18017307 30.0872294,4.55610134 L18.4747411,13.9811272 L16.245058,12.5912616 L27.3241293,3.84488108 C27.4825218,3.69972042 27.5408089,3.47252464 27.4723648,3.26707786 C27.4039206,3.06163107 27.2218853,2.91737513 27.0094132,2.90020683 L3.77376843,2.90020683 L1,1 L35,1.11944157 Z" id="Shape" fill="#06B0E5"></path>
                <path d="M34.7320891,0 L1.2679109,0 C0.567663044,-4.26345267e-17 8.57556291e-17,0.564442135 0,1.2607168 L0,21.7338955 C-6.34796671e-06,22.4310471 0.566787483,22.9970334 1.2679109,23 L34.7320891,23 C35.4332125,22.9970334 36.0000063,22.4310471 36,21.7338955 L36,1.2607168 C36,0.926353912 35.8664169,0.605685662 35.6286375,0.3692554 C35.3908581,0.132825138 35.06836,-1.16742177e-15 34.7320891,0 Z M33.3395545,1.36308269 L18,13.4099321 L2.66044551,1.36308269 L33.3395545,1.36308269 Z M2.96387718,15.9098149 L2.96387718,4.67111736 L12.3377483,12.1276646 L4.0692354,18.7329585 C3.35916614,17.9535789 2.96528,16.9398933 2.96387718,15.8882642 L2.96387718,15.9098149 Z M7.21192053,20.133755 C6.49968807,20.1279583 5.80057702,19.9425864 5.18001204,19.5949871 L13.4376881,13.0004685 L15.5779651,14.7029749 C16.4560816,15.3704931 17.6786627,15.3571588 18.5418423,14.6706489 C18.6410169,14.62425 18.7353861,14.5683106 18.8236002,14.5036308 L21.6736905,12.2785196 L31.4647803,20.1122043 L7.21192053,20.133755 Z M34.6291391,20.9095807 L34.6291391,20.1122043 L33.653823,20.1122043 L22.7573751,11.4111033 L34.6291391,2.0904193 L34.6291391,20.9095807 Z" id="Shape" fill="#005BC7"></path>
            </g>
        </g>
    </g>
</svg>