<?xml version="1.0" encoding="UTF-8"?>
<svg width="47px" height="47px" viewBox="0 0 47 47" version="1.1" xmlns="http://www.w3.org/2000/svg" xmlns:xlink="http://www.w3.org/1999/xlink">
    <!-- Generator: Sketch 49.3 (51167) - http://www.bohemiancoding.com/sketch -->
    <title>007-medical-report</title>
    <desc>Created with Sketch.</desc>
    <defs></defs>
    <g id="Symbols" stroke="none" stroke-width="1" fill="none" fill-rule="evenodd">
        <g id="Talking-Points" transform="translate(0.000000, -6.000000)" fill="#000000" fill-rule="nonzero">
            <g id="007-medical-report" transform="translate(0.000000, 6.000000)">
                <path d="M11.7235966,0.292985848 C11.354852,-0.0975838103 10.7568927,-0.097677562 10.3880597,0.292798345 L0,11.2929687 L1.33535978,12.7070259 L10.1113021,3.4138868 L10.1113021,7.99993961 C10.1113021,9.65681372 8.84287411,10.9999946 7.27821102,10.9999946 L4.44511993,10.9999946 L4.44511993,13 L7.27821102,13 C9.88474336,12.9967187 11.9969013,10.7599902 12,7.99993961 L12,0.999780053 C12,0.734650193 11.9005762,0.480395533 11.7235966,0.292985848 Z" id="Shape"></path>
                <path d="M35,26.4375 L35,4.89580273 C34.9968099,2.19330273 32.8222526,0.00321289063 30.1389193,0 L11.6666667,0 C11.4088151,9.1796875e-05 11.1616276,0.103271484 10.9793359,0.286865234 L0.284830729,11.0577598 C0.102539062,11.2413535 0,11.4903984 0,11.75 L0,42.1041973 C0.00319010417,44.8066973 2.1777474,46.9967871 4.86108073,47 L30.1388281,47 C32.8222526,46.9967871 34.9967188,44.8066973 34.9999089,42.1041973 L34.9999089,40.1458945 L33.0554948,40.1458945 L33.0554948,42.1041973 C33.0554948,43.7265234 31.7496484,45.0416973 30.1388281,45.0416973 L4.86108073,45.0416973 C3.25026042,45.0416973 1.94441406,43.7265234 1.94441406,42.1041973 L1.94441406,12.155375 L12.0691667,1.95830273 L30.1389193,1.95830273 C31.7497396,1.95830273 33.0555859,3.27347656 33.0555859,4.89580273 L33.0555859,26.4375 L35,26.4375 Z" id="Shape"></path>
                <path d="M28.9999812,4 L27,4 L27,5.99998125 L28.9999812,5.99998125 C29.552266,5.99998125 30.0000188,6.44773405 30.0000188,7.00001875 L30.0000188,9 L32,9 L32,7.00001875 C32.0000938,5.34316464 30.6569291,4 28.9999812,4 Z" id="Shape"></path>
                <rect id="Rectangle-path" x="22" y="4" width="2" height="2"></rect>
                <path d="M25.480406,19.3924023 C23.6928332,17.7621914 21.0322315,17.541629 19.0010054,18.8552504 C16.9699666,17.5405975 14.3088026,17.7594719 12.5195431,19.3883699 C12.4168338,19.482334 12.3184353,19.5807993 12.224535,19.6835784 C10.4828815,21.5894923 10.614923,24.5473911 12.5195431,26.2903214 L18.3172764,31.7288904 C18.502453,31.9029396 18.7469498,31.9998107 19.0010054,31.9999983 C19.2538426,32.0004672 19.4974024,31.9050027 19.6827664,31.7329228 L25.4804997,26.2943538 C25.583209,26.2003897 25.6816075,26.1019244 25.7755078,25.9991453 C27.5171612,24.0932314 27.3850261,21.1353326 25.480406,19.3924023 Z M24.1139788,24.8269389 L19.0010054,29.6282964 L13.8870011,24.8339721 C13.8184033,24.7720796 13.7530854,24.7067174 13.6912349,24.638073 C12.7012523,23.5392936 12.7888738,21.8454084 13.8870011,20.8547533 C14.4898559,20.2979083 15.2817295,19.9911654 16.1020919,19.9965106 C16.9216108,19.9891023 17.713297,20.2934071 18.3171826,20.8477201 C18.7016865,21.2084783 19.3001368,21.2084783 19.6846406,20.8477201 C20.9395495,19.7031777 22.8589762,19.7031777 24.1138851,20.8477201 C24.1824829,20.9096126 24.2478008,20.9749748 24.3096513,21.0436192 C25.2996339,22.1424924 25.2120124,23.8363776 24.1139788,24.8269389 Z" id="Shape"></path>
                <path d="M19,13 C12.372625,13 7,18.1487656 7,24.5 C7,30.8512344 12.372625,36 19,36 C25.6244687,35.9931719 30.992875,30.8484492 31,24.5 C31,18.1486758 25.627375,13 19,13 Z M19,34.0832734 C13.4771875,34.0832734 8.99996875,29.7926953 8.99996875,24.4999102 C8.99996875,19.2072148 13.4770937,14.9165469 19,14.9165469 C24.520375,14.9223867 28.9939375,19.2095508 29.0000312,24.4999102 C28.9999375,29.7926953 24.5228125,34.0832734 19,34.0832734 Z" id="Shape"></path>
                <path d="M22,22 L22,24 L24,24 C24,22.8954202 23.1045798,22 22,22 Z" id="Shape"></path>
                <path d="M46.7072357,23.1998146 L43.7982026,20.2927843 C43.4077252,19.9024052 42.7747112,19.9024052 42.38414,20.2927843 L29.2927877,33.3859519 C28.9024041,33.7764248 28.9024041,34.4094313 29.2927877,34.7999979 L32.2018209,37.7070282 C32.389325,37.8946239 32.6436744,38 32.9088053,38 C33.1740299,37.9999062 33.4282855,37.8945302 33.6157897,37.7070282 L46.7070482,24.6138606 C47.0976193,24.2233877 47.0976193,23.5903811 46.7072357,23.1998146 Z M32.908899,35.5860061 L31.4138347,34.0909593 L43.0911244,22.4138064 L44.5861888,23.9088532 L32.908899,35.5860061 Z" id="Shape"></path>
                <path d="M30.9999531,35.9999531 L30.9999531,34 L29,34 L29,36.9999766 C29,37.5522535 29.4477465,38 30.0000234,38 L33,38 L33,36.0000469 L30.9999531,36.0000469 L30.9999531,35.9999531 Z" id="Shape"></path>
                <rect id="Rectangle-path" x="9" y="39" width="16" height="2"></rect>
                <rect id="Rectangle-path" x="27" y="39" width="2" height="2"></rect>
            </g>
        </g>
    </g>
</svg>