<?xml version="1.0" encoding="UTF-8"?>
<svg width="79px" height="18px" viewBox="0 0 79 18" version="1.1" xmlns="http://www.w3.org/2000/svg" xmlns:xlink="http://www.w3.org/1999/xlink">
    <!-- Generator: Sketch 49.3 (51167) - http://www.bohemiancoding.com/sketch -->
    <title>Penblade-Logo</title>
    <desc>Created with Sketch.</desc>
    <defs></defs>
    <g id="Symbols" stroke="none" stroke-width="1" fill="none" fill-rule="evenodd">
        <g id="Header" transform="translate(-31.000000, -17.000000)">
            <g id="Penblade-Logo" transform="translate(31.000000, 17.000000)">
                <g id="Shape">
                    <path d="M3.40517241,0.310344828 C4.12669328,0.288992435 4.84562773,0.407987136 5.52394636,0.661034483 C6.04998931,0.865044556 6.50941813,1.21672628 6.84969349,1.67586207 C7.18386807,2.1551237 7.41402616,2.70222765 7.52467433,3.28034483 C7.6598645,3.96885064 7.72579089,4.66976303 7.72141762,5.37206897 C7.72349212,6.06194284 7.65757625,6.75026634 7.52467433,7.42655172 C7.41022722,8.01706532 7.17614999,8.57636803 6.83758621,9.06827586 C6.48548936,9.5447592 6.01509712,9.91559501 5.47551724,10.142069 C4.77748778,10.4234512 4.03070102,10.5554672 3.2810728,10.53 L1.49222222,10.53 L1.49222222,17.7455172 L0,17.7455172 L0,0.310344828 L3.40517241,0.310344828 Z M1.49222222,9.12724138 L3.19934866,9.12724138 C3.71615651,9.14715788 4.23140213,9.05734861 4.71275862,8.86344828 C5.08433684,8.70462288 5.40590636,8.44364679 5.64199234,8.10931034 C5.87966092,7.75623639 6.03784096,7.35342498 6.10509579,6.93 C6.18821868,6.42764082 6.22872781,5.91884106 6.22616858,5.40931034 C6.22851002,4.92087728 6.19206783,4.43305934 6.11720307,3.95068966 C6.05457078,3.53674369 5.90480755,3.14173742 5.67831418,2.79310345 C5.44794684,2.45586797 5.1346667,2.18712119 4.7702682,2.01413793 C4.29280189,1.80443245 3.77593249,1.70586087 3.25685824,1.72551724 L1.49222222,1.72551724 L1.49222222,9.12724138 Z" fill="#006FB1" fill-rule="nonzero"></path>
                    <polygon fill="#006FB1" fill-rule="nonzero" points="9.55264368 17.7455172 9.55264368 0.310344828 16.6596169 0.310344828 16.6596169 1.71310345 11.0418391 1.71310345 11.0418391 8.15275862 15.951341 8.15275862 15.951341 9.55551724 11.0418391 9.55551724 11.0418391 16.3427586 16.6596169 16.3427586 16.6596169 17.7455172"></polygon>
                    <path d="M19.7893487,4.56827586 L19.7893487,17.7455172 L18.3001533,17.7455172 L18.3001533,0.310344828 L19.716705,0.310344828 C19.8135632,0.562758621 19.9558238,0.922758621 20.1434866,1.39034483 C20.3281226,1.85586207 20.5430268,2.37724138 20.7791188,2.94206897 C21.0152107,3.50689655 21.2573563,4.11827586 21.5116092,4.74517241 C21.7658621,5.37206897 22.0080077,5.98655172 22.2440996,6.54827586 C22.4801916,7.11 22.692069,7.64689655 22.8797318,8.11551724 C23.0673946,8.58413793 23.2187356,8.94103448 23.330728,9.18931034 L25.0408812,13.562069 L25.1407663,13.562069 L25.1407663,0.310344828 L26.6360153,0.310344828 L26.6360153,17.7455172 L25.21341,17.7455172 C25.1165517,17.4941379 24.9712644,17.1248276 24.7866284,16.6810345 C24.6019923,16.2372414 24.3840613,15.7065517 24.1509962,15.1293103 C23.917931,14.552069 23.6697318,13.9655172 23.4154789,13.3231034 C23.1612261,12.6806897 22.9190805,12.1034483 22.7011494,11.5324138 C22.4832184,10.9613793 22.2501533,10.4524138 22.0503831,9.98068966 C21.850613,9.50896552 21.7083525,9.16758621 21.6114943,8.9162069 L19.8771264,4.57137931 L19.7893487,4.56827586 Z" fill="#006FB1" fill-rule="nonzero"></path>
                    <path d="M37.3630651,14.5458621 C37.5438176,13.8146753 37.6313163,13.06254 37.6233716,12.3082759 C37.6232058,11.9141203 37.5908062,11.520673 37.5265134,11.132069 C37.4647898,10.7633775 37.3537694,10.4051754 37.19659,10.0675862 C37.046194,9.7455311 36.8412252,9.45341171 36.5912261,9.20482759 C36.3163004,8.93973439 35.9860973,8.74232792 35.6256705,8.62758621 L35.6256705,8.50344828 C35.9410566,8.3922563 36.2291723,8.21225747 36.4701533,7.97586207 C36.7048166,7.7443954 36.8992983,7.47362401 37.045249,7.17517241 C37.1919142,6.86741806 37.3007047,6.5421664 37.3691188,6.20689655 C37.440241,5.86511349 37.4767565,5.51671462 37.4780843,5.16724138 C37.4780843,3.5637931 37.0987229,2.35241379 36.34,1.53310345 C35.5812771,0.713793103 34.4462197,0.306206897 32.9348276,0.310344828 L29.0968199,0.310313637 L29.0968199,17.6896552 L37.3630651,14.5458621 Z M32.4202682,3.56586207 L32.7622989,3.56586207 C33.1803579,3.52872465 33.5971717,3.65019819 33.9336782,3.90724138 C34.1788506,4.13068966 34.3029502,4.58689655 34.3029502,5.26965517 C34.3029502,6.43862069 33.8136143,7.02310345 32.8349425,7.02310345 L32.4202682,7.02310345 L32.4202682,3.56586207 Z M32.4202682,10.1824138 L33.0256322,10.1824138 C33.4244328,10.1509081 33.8155072,10.307414 34.088046,10.6075862 C34.3211111,10.8962069 34.4421839,11.3896552 34.4421839,12.0972414 C34.4424551,12.4082553 34.4262884,12.7190558 34.3937548,13.0282759 C34.3666765,13.291037 34.296045,13.5471297 34.1849042,13.7855172 C34.0869544,13.9949225 33.9352282,14.1730203 33.7460153,14.3006897 C33.5204436,14.4348809 33.2619166,14.4995326 33.0014176,14.4868966 L32.4142146,14.4868966 L32.4202682,10.1824138 Z" fill="#006FB1" fill-rule="nonzero"></path>
                    <polygon fill="#006FB1" fill-rule="nonzero" points="43.3168199 12.2927586 43.3168199 0.310344828 39.9933716 0.310344828 39.9933716 13.5496552"></polygon>
                    <polygon fill="#06B0E5" fill-rule="nonzero" points="43.3168199 13.7824138 39.9933716 15.0393103 39.9933716 17.7455172 47.787433 17.7455172 47.787433 14.4868966 43.3168199 14.4868966"></polygon>
                    <polygon fill="#006FB1" fill-rule="nonzero" points="53.0056705 8.62758621 53.0389655 8.35137931 53.4082375 4.81965517 53.5535249 4.81965517 53.9137165 8.28310345 56.7680077 7.20310345 55.484636 0.310344828 51.4286973 0.310344828 49.6549808 9.8937931"></polygon>
                    <polygon fill="#06B0E5" fill-rule="nonzero" points="54.0771648 9.71068966 54.2375862 11.132069 52.6969349 11.132069 52.8149808 10.1855172 49.3583525 11.4951724 48.2021073 17.7455172 51.7222989 17.7455172 52.2338314 14.337931 54.7249042 14.337931 55.2394636 17.7455172 58.7324138 17.7455172 57.0283142 8.59034483"></polygon>
                    <path d="M63.5450575,4.65517241 L63.5450575,3.56586207 L64.0505364,3.56586207 C64.5650958,3.56586207 64.898046,3.69931034 65.0524138,3.95689655 C65.0675479,3.98172414 65.0736015,4.02517241 65.0887356,4.0562069 L68.342567,2.81482759 C68.342567,2.76517241 68.3244061,2.70310345 68.3122989,2.65965517 C68.1551904,1.91570342 67.7207029,1.26417831 67.1015709,0.844137931 C66.3608209,0.447727433 65.5295661,0.263330622 64.695249,0.310344828 L60.2337165,0.310344828 L60.2337165,5.89655172 L63.5450575,4.65517241 Z" fill="#006FB1" fill-rule="nonzero"></path>
                    <path d="M68.5272031,4.24241379 L65.2794253,5.4837931 L65.2794253,12.9941379 C65.3037606,13.3857339 65.2253751,13.7768673 65.0524138,14.1268966 C64.898046,14.3782759 64.5650958,14.5024138 64.0505364,14.5024138 L63.5450575,14.5024138 L63.5450575,6.1262069 L60.2155556,7.38310345 L60.2155556,17.7455172 L64.4531034,17.7455172 C65.2553159,17.7603889 66.0486723,17.5716876 66.762567,17.1962069 C67.4375479,16.83 67.9278927,16.1503448 68.2396552,15.1665517 C68.4522674,14.3838062 68.5542008,13.5738228 68.5423372,12.7613793 C68.5665517,11.6937931 68.578659,10.4410345 68.578659,9.00310345 C68.578659,7.56517241 68.5665517,6.28344828 68.5423372,5.15793103 C68.5423372,4.82275862 68.5211494,4.53724138 68.5029885,4.24241379" fill="#06B0E5" fill-rule="nonzero"></path>
                    <polygon fill="#06B0E5" fill-rule="nonzero" points="71.0939464 17.7455172 78.8880077 17.7455172 78.8880077 14.4868966 74.4173946 14.4868966 74.4173946 10.53 78.328046 10.53 78.328046 7.27448276 74.4173946 7.27448276 74.4173946 3.56586207 78.8880077 3.56586207 78.8880077 0.319655172 71.0939464 3.26793103"></polygon>
                </g>
            </g>
        </g>
    </g>
</svg>