<?xml version="1.0" encoding="UTF-8"?>
<svg width="43px" height="43px" viewBox="0 0 43 43" version="1.1" xmlns="http://www.w3.org/2000/svg" xmlns:xlink="http://www.w3.org/1999/xlink">
    <!-- Generator: Sketch 49.3 (51167) - http://www.bohemiancoding.com/sketch -->
    <title>Page 1</title>
    <desc>Created with Sketch.</desc>
    <defs></defs>
    <g id="Symbols" stroke="none" stroke-width="1" fill="none" fill-rule="evenodd">
        <g id="Blurb" transform="translate(-43.000000, -5.000000)" stroke="#000000">
            <g id="Page-1" transform="translate(65.627417, 27.627417) rotate(-45.000000) translate(-65.627417, -27.627417) translate(36.627417, 24.627417)">
                <polyline id="Stroke-1" points="11.5186 4.5 8.1186 4.5 0.4586 1.25 11.5186 1.25"></polyline>
                <path d="M17.5186,0.5 L57.5186,0.5 L57.5186,2.5 L56.0186,4 L53.5186,4 L53.5186,2.5 L43.5186,2.5 L40.0186,6 L17.5186,6 L11.5186,4.5 L11.5186,3.5 L17.5186,3.5 L17.5186,2.031 L11.5186,2 L11.5186,1.416 C11.5186,0.913 11.9296,0.508 12.4326,0.517 C14.1116,0.546 17.5186,0.594 17.5186,0.5 Z" id="Stroke-3"></path>
                <polygon id="Stroke-5" points="40.0186 6 43.0186 6 46.6436 2.5 43.5186 2.5"></polygon>
            </g>
        </g>
    </g>
</svg>